<mxfile host="app.diagrams.net" agent="Mozilla/5.0 (Windows NT 10.0; Win64; x64) AppleWebKit/537.36 (KHTML, like Gecko) Chrome/138.0.0.0 Safari/537.36" version="28.1.1">
  <diagram name="Page-1" id="r5_eIb4FW43goZEFx7fc">
    <mxGraphModel dx="2587" dy="892" grid="1" gridSize="10" guides="1" tooltips="1" connect="1" arrows="1" fold="1" page="1" pageScale="1" pageWidth="850" pageHeight="1100" math="0" shadow="0">
      <root>
        <mxCell id="0" />
        <mxCell id="1" parent="0" />
        <mxCell id="DPii9KiO_MGCDO2qKT5o-1" value="" style="rounded=0;whiteSpace=wrap;html=1;" vertex="1" parent="1">
          <mxGeometry x="-690" y="120" width="1180" height="1350" as="geometry" />
        </mxCell>
        <mxCell id="DPii9KiO_MGCDO2qKT5o-2" value="WorkerNode" style="swimlane;whiteSpace=wrap;html=1;fillColor=#dae8fc;strokeColor=#6c8ebf;fontSize=18;" vertex="1" parent="1">
          <mxGeometry x="-460" y="140" width="150" height="140" as="geometry" />
        </mxCell>
        <UserObject label="RSP" treeRoot="1" id="DPii9KiO_MGCDO2qKT5o-3">
          <mxCell style="whiteSpace=wrap;html=1;align=center;treeFolding=1;treeMoving=1;newEdgeStyle={&quot;edgeStyle&quot;:&quot;elbowEdgeStyle&quot;,&quot;startArrow&quot;:&quot;none&quot;,&quot;endArrow&quot;:&quot;none&quot;};fillColor=#f5f5f5;fontColor=#333333;strokeColor=#666666;fontSize=30;" vertex="1" parent="DPii9KiO_MGCDO2qKT5o-2">
            <mxGeometry x="15" y="50" width="120" height="60" as="geometry" />
          </mxCell>
        </UserObject>
        <mxCell id="DPii9KiO_MGCDO2qKT5o-4" value="MasterNode" style="swimlane;whiteSpace=wrap;html=1;fillColor=#fff2cc;strokeColor=#d6b656;fontSize=18;" vertex="1" parent="1">
          <mxGeometry x="-75" y="230" width="315" height="290" as="geometry" />
        </mxCell>
        <UserObject label="RSP" treeRoot="1" id="DPii9KiO_MGCDO2qKT5o-5">
          <mxCell style="whiteSpace=wrap;html=1;align=center;treeFolding=1;treeMoving=1;newEdgeStyle={&quot;edgeStyle&quot;:&quot;elbowEdgeStyle&quot;,&quot;startArrow&quot;:&quot;none&quot;,&quot;endArrow&quot;:&quot;none&quot;};fillColor=#f5f5f5;fontColor=#333333;strokeColor=#666666;fontSize=30;" vertex="1" parent="DPii9KiO_MGCDO2qKT5o-4">
            <mxGeometry x="25" y="40" width="135" height="100" as="geometry" />
          </mxCell>
        </UserObject>
        <mxCell id="DPii9KiO_MGCDO2qKT5o-6" value="UCI" style="rounded=0;whiteSpace=wrap;html=1;fontSize=22;" vertex="1" parent="DPii9KiO_MGCDO2qKT5o-4">
          <mxGeometry x="240" y="40" width="50" height="100" as="geometry" />
        </mxCell>
        <mxCell id="DPii9KiO_MGCDO2qKT5o-7" value="NodePlatform" style="shape=cylinder;whiteSpace=wrap;html=1;boundedLbl=1;backgroundOutline=1;fillColor=#d5e8d4;strokeColor=#82b366;fontSize=18;" vertex="1" parent="DPii9KiO_MGCDO2qKT5o-4">
          <mxGeometry x="180" y="210" width="120" height="65" as="geometry" />
        </mxCell>
        <mxCell id="DPii9KiO_MGCDO2qKT5o-8" value="DataBase" style="shape=datastore;whiteSpace=wrap;html=1;fillColor=#d5e8d4;strokeColor=#82b366;fontSize=22;" vertex="1" parent="DPii9KiO_MGCDO2qKT5o-4">
          <mxGeometry x="37.5" y="210" width="110" height="60" as="geometry" />
        </mxCell>
        <mxCell id="DPii9KiO_MGCDO2qKT5o-9" value="" style="endArrow=classic;startArrow=classic;html=1;rounded=0;fontSize=11;entryX=1;entryY=0.5;entryDx=0;entryDy=0;exitX=0;exitY=0.5;exitDx=0;exitDy=0;" edge="1" parent="DPii9KiO_MGCDO2qKT5o-4" source="DPii9KiO_MGCDO2qKT5o-6" target="DPii9KiO_MGCDO2qKT5o-5">
          <mxGeometry width="50" height="50" relative="1" as="geometry">
            <mxPoint x="103" y="220" as="sourcePoint" />
            <mxPoint x="103" y="150" as="targetPoint" />
          </mxGeometry>
        </mxCell>
        <mxCell id="DPii9KiO_MGCDO2qKT5o-10" style="edgeStyle=orthogonalEdgeStyle;rounded=0;orthogonalLoop=1;jettySize=auto;html=1;exitX=1;exitY=0.75;exitDx=0;exitDy=0;fontSize=11;startArrow=classic;startFill=1;" edge="1" parent="DPii9KiO_MGCDO2qKT5o-4" source="DPii9KiO_MGCDO2qKT5o-5">
          <mxGeometry relative="1" as="geometry">
            <mxPoint x="225" y="130" as="sourcePoint" />
            <mxPoint x="242" y="210" as="targetPoint" />
            <Array as="points">
              <mxPoint x="185" y="115" />
              <mxPoint x="185" y="150" />
              <mxPoint x="242" y="150" />
            </Array>
          </mxGeometry>
        </mxCell>
        <mxCell id="DPii9KiO_MGCDO2qKT5o-11" style="edgeStyle=orthogonalEdgeStyle;rounded=0;orthogonalLoop=1;jettySize=auto;html=1;entryX=1;entryY=0.5;entryDx=0;entryDy=0;strokeWidth=1;fontSize=11;startArrow=classic;startFill=1;" edge="1" parent="1" source="DPii9KiO_MGCDO2qKT5o-12" target="DPii9KiO_MGCDO2qKT5o-6">
          <mxGeometry relative="1" as="geometry" />
        </mxCell>
        <mxCell id="DPii9KiO_MGCDO2qKT5o-12" value="" style="shape=actor;whiteSpace=wrap;html=1;" vertex="1" parent="1">
          <mxGeometry x="440" y="260" width="40" height="60" as="geometry" />
        </mxCell>
        <mxCell id="DPii9KiO_MGCDO2qKT5o-13" style="edgeStyle=orthogonalEdgeStyle;rounded=0;orthogonalLoop=1;jettySize=auto;html=1;exitX=0;exitY=0.5;exitDx=0;exitDy=0;exitPerimeter=0;entryX=1;entryY=0.5;entryDx=0;entryDy=0;fontSize=11;" edge="1" parent="1" source="DPii9KiO_MGCDO2qKT5o-15" target="DPii9KiO_MGCDO2qKT5o-2">
          <mxGeometry relative="1" as="geometry">
            <mxPoint x="-250" y="289.9999999999999" as="sourcePoint" />
          </mxGeometry>
        </mxCell>
        <mxCell id="DPii9KiO_MGCDO2qKT5o-14" style="edgeStyle=orthogonalEdgeStyle;rounded=0;orthogonalLoop=1;jettySize=auto;html=1;fontSize=11;exitX=1;exitY=0.5;exitDx=0;exitDy=0;exitPerimeter=0;" edge="1" parent="1" source="DPii9KiO_MGCDO2qKT5o-15">
          <mxGeometry relative="1" as="geometry">
            <mxPoint x="-50" y="320" as="targetPoint" />
            <mxPoint x="-110" y="290" as="sourcePoint" />
          </mxGeometry>
        </mxCell>
        <mxCell id="DPii9KiO_MGCDO2qKT5o-15" value="Query/Stream" style="strokeWidth=2;html=1;shape=mxgraph.flowchart.direct_data;whiteSpace=wrap;sketch=0;fontSize=17;labelBackgroundColor=none;fillColor=#e1d5e7;strokeColor=#9673a6;" vertex="1" parent="1">
          <mxGeometry x="-270" y="260" width="160" height="60" as="geometry" />
        </mxCell>
        <mxCell id="DPii9KiO_MGCDO2qKT5o-16" value="Query/Stream" style="strokeWidth=2;html=1;shape=mxgraph.flowchart.direct_data;whiteSpace=wrap;sketch=0;fontSize=17;fillColor=#e1d5e7;strokeColor=#9673a6;" vertex="1" parent="1">
          <mxGeometry x="-270" y="440" width="160" height="60" as="geometry" />
        </mxCell>
        <mxCell id="DPii9KiO_MGCDO2qKT5o-17" value="WorkerNode" style="swimlane;whiteSpace=wrap;html=1;fillColor=#dae8fc;strokeColor=#6c8ebf;fontSize=18;" vertex="1" parent="1">
          <mxGeometry x="-460" y="470" width="150" height="140" as="geometry" />
        </mxCell>
        <UserObject label="RSP" treeRoot="1" id="DPii9KiO_MGCDO2qKT5o-18">
          <mxCell style="whiteSpace=wrap;html=1;align=center;treeFolding=1;treeMoving=1;newEdgeStyle={&quot;edgeStyle&quot;:&quot;elbowEdgeStyle&quot;,&quot;startArrow&quot;:&quot;none&quot;,&quot;endArrow&quot;:&quot;none&quot;};fillColor=#f5f5f5;fontColor=#333333;strokeColor=#666666;fontSize=30;" vertex="1" parent="DPii9KiO_MGCDO2qKT5o-17">
            <mxGeometry x="15" y="50" width="120" height="60" as="geometry" />
          </mxCell>
        </UserObject>
        <mxCell id="DPii9KiO_MGCDO2qKT5o-19" style="edgeStyle=orthogonalEdgeStyle;rounded=0;orthogonalLoop=1;jettySize=auto;html=1;exitX=0;exitY=0.5;exitDx=0;exitDy=0;exitPerimeter=0;entryX=1;entryY=0.5;entryDx=0;entryDy=0;fontSize=11;" edge="1" parent="1" source="DPii9KiO_MGCDO2qKT5o-16" target="DPii9KiO_MGCDO2qKT5o-17">
          <mxGeometry relative="1" as="geometry">
            <mxPoint x="-230" y="300" as="sourcePoint" />
            <mxPoint x="-300" y="370" as="targetPoint" />
          </mxGeometry>
        </mxCell>
        <mxCell id="DPii9KiO_MGCDO2qKT5o-20" style="edgeStyle=orthogonalEdgeStyle;rounded=0;orthogonalLoop=1;jettySize=auto;html=1;fontSize=11;exitX=1;exitY=0.5;exitDx=0;exitDy=0;exitPerimeter=0;entryX=0;entryY=0.5;entryDx=0;entryDy=0;" edge="1" parent="1" source="DPii9KiO_MGCDO2qKT5o-16" target="DPii9KiO_MGCDO2qKT5o-5">
          <mxGeometry relative="1" as="geometry">
            <mxPoint x="-40" y="330" as="targetPoint" />
            <mxPoint x="-130" y="300" as="sourcePoint" />
          </mxGeometry>
        </mxCell>
        <mxCell id="DPii9KiO_MGCDO2qKT5o-21" value="" style="endArrow=classic;startArrow=classic;html=1;rounded=0;fontSize=11;entryX=0.5;entryY=1;entryDx=0;entryDy=0;" edge="1" parent="1" target="DPii9KiO_MGCDO2qKT5o-5">
          <mxGeometry width="50" height="50" relative="1" as="geometry">
            <mxPoint x="18" y="440" as="sourcePoint" />
            <mxPoint x="70" y="530" as="targetPoint" />
          </mxGeometry>
        </mxCell>
        <mxCell id="DPii9KiO_MGCDO2qKT5o-22" style="edgeStyle=orthogonalEdgeStyle;rounded=0;orthogonalLoop=1;jettySize=auto;html=1;strokeWidth=1;fontSize=11;startArrow=classic;startFill=1;entryX=0;entryY=0.5;entryDx=0;entryDy=0;" edge="1" parent="1" source="DPii9KiO_MGCDO2qKT5o-23" target="DPii9KiO_MGCDO2qKT5o-2">
          <mxGeometry relative="1" as="geometry">
            <mxPoint x="-460" y="370" as="targetPoint" />
          </mxGeometry>
        </mxCell>
        <mxCell id="DPii9KiO_MGCDO2qKT5o-23" value="Sensor" style="rounded=0;whiteSpace=wrap;html=1;labelBackgroundColor=none;sketch=0;strokeWidth=2;fontSize=25;" vertex="1" parent="1">
          <mxGeometry x="-660" y="170" width="100" height="40" as="geometry" />
        </mxCell>
        <mxCell id="DPii9KiO_MGCDO2qKT5o-24" style="edgeStyle=orthogonalEdgeStyle;rounded=0;orthogonalLoop=1;jettySize=auto;html=1;strokeWidth=1;fontSize=11;startArrow=classic;startFill=1;" edge="1" parent="1" source="DPii9KiO_MGCDO2qKT5o-25">
          <mxGeometry relative="1" as="geometry">
            <mxPoint x="-460" y="530.0000000000001" as="targetPoint" />
          </mxGeometry>
        </mxCell>
        <mxCell id="DPii9KiO_MGCDO2qKT5o-25" value="Sensor" style="rounded=0;whiteSpace=wrap;html=1;labelBackgroundColor=none;sketch=0;strokeWidth=2;fontSize=25;" vertex="1" parent="1">
          <mxGeometry x="-640" y="530" width="100" height="40" as="geometry" />
        </mxCell>
        <mxCell id="DPii9KiO_MGCDO2qKT5o-26" value="WorkerNode" style="swimlane;whiteSpace=wrap;html=1;fillColor=#dae8fc;strokeColor=#6c8ebf;fontSize=18;" vertex="1" parent="1">
          <mxGeometry x="-460" y="685" width="150" height="140" as="geometry" />
        </mxCell>
        <UserObject label="RSP" treeRoot="1" id="DPii9KiO_MGCDO2qKT5o-27">
          <mxCell style="whiteSpace=wrap;html=1;align=center;treeFolding=1;treeMoving=1;newEdgeStyle={&quot;edgeStyle&quot;:&quot;elbowEdgeStyle&quot;,&quot;startArrow&quot;:&quot;none&quot;,&quot;endArrow&quot;:&quot;none&quot;};fillColor=#f5f5f5;fontColor=#333333;strokeColor=#666666;fontSize=30;" vertex="1" parent="DPii9KiO_MGCDO2qKT5o-26">
            <mxGeometry x="15" y="50" width="120" height="60" as="geometry" />
          </mxCell>
        </UserObject>
        <mxCell id="DPii9KiO_MGCDO2qKT5o-28" value="FogMasterNode" style="swimlane;whiteSpace=wrap;html=1;fillColor=#fff2cc;strokeColor=#d6b656;fontSize=16;" vertex="1" parent="1">
          <mxGeometry y="825" width="315" height="290" as="geometry" />
        </mxCell>
        <UserObject label="RSP" treeRoot="1" id="DPii9KiO_MGCDO2qKT5o-29">
          <mxCell style="whiteSpace=wrap;html=1;align=center;treeFolding=1;treeMoving=1;newEdgeStyle={&quot;edgeStyle&quot;:&quot;elbowEdgeStyle&quot;,&quot;startArrow&quot;:&quot;none&quot;,&quot;endArrow&quot;:&quot;none&quot;};fillColor=#f5f5f5;fontColor=#333333;strokeColor=#666666;fontSize=30;" vertex="1" parent="DPii9KiO_MGCDO2qKT5o-28">
            <mxGeometry x="25" y="40" width="135" height="100" as="geometry" />
          </mxCell>
        </UserObject>
        <mxCell id="DPii9KiO_MGCDO2qKT5o-30" value="UCI" style="rounded=0;whiteSpace=wrap;html=1;fontSize=22;" vertex="1" parent="DPii9KiO_MGCDO2qKT5o-28">
          <mxGeometry x="240" y="40" width="50" height="100" as="geometry" />
        </mxCell>
        <mxCell id="DPii9KiO_MGCDO2qKT5o-31" value="NodePlatform" style="shape=cylinder;whiteSpace=wrap;html=1;boundedLbl=1;backgroundOutline=1;fillColor=#d5e8d4;strokeColor=#82b366;fontSize=18;" vertex="1" parent="DPii9KiO_MGCDO2qKT5o-28">
          <mxGeometry x="195" y="210" width="115" height="65" as="geometry" />
        </mxCell>
        <mxCell id="DPii9KiO_MGCDO2qKT5o-32" value="DataBase" style="shape=datastore;whiteSpace=wrap;html=1;fillColor=#d5e8d4;strokeColor=#82b366;fontSize=18;" vertex="1" parent="DPii9KiO_MGCDO2qKT5o-28">
          <mxGeometry x="37.5" y="210" width="110" height="60" as="geometry" />
        </mxCell>
        <mxCell id="DPii9KiO_MGCDO2qKT5o-33" value="" style="endArrow=classic;startArrow=classic;html=1;rounded=0;fontSize=11;entryX=1;entryY=0.5;entryDx=0;entryDy=0;exitX=0;exitY=0.5;exitDx=0;exitDy=0;" edge="1" parent="DPii9KiO_MGCDO2qKT5o-28" source="DPii9KiO_MGCDO2qKT5o-30" target="DPii9KiO_MGCDO2qKT5o-29">
          <mxGeometry width="50" height="50" relative="1" as="geometry">
            <mxPoint x="103" y="220" as="sourcePoint" />
            <mxPoint x="103" y="150" as="targetPoint" />
          </mxGeometry>
        </mxCell>
        <mxCell id="DPii9KiO_MGCDO2qKT5o-34" style="edgeStyle=orthogonalEdgeStyle;rounded=0;orthogonalLoop=1;jettySize=auto;html=1;exitX=1;exitY=0.75;exitDx=0;exitDy=0;entryX=0.5;entryY=0;entryDx=0;entryDy=0;fontSize=11;startArrow=classic;startFill=1;" edge="1" parent="DPii9KiO_MGCDO2qKT5o-28" source="DPii9KiO_MGCDO2qKT5o-29" target="DPii9KiO_MGCDO2qKT5o-31">
          <mxGeometry relative="1" as="geometry">
            <mxPoint x="225" y="130" as="sourcePoint" />
            <mxPoint x="175" y="200" as="targetPoint" />
            <Array as="points">
              <mxPoint x="185" y="115" />
              <mxPoint x="185" y="170" />
              <mxPoint x="242" y="170" />
            </Array>
          </mxGeometry>
        </mxCell>
        <mxCell id="DPii9KiO_MGCDO2qKT5o-35" value="" style="endArrow=classic;startArrow=classic;html=1;rounded=0;fontSize=11;entryX=0.5;entryY=1;entryDx=0;entryDy=0;exitX=0.5;exitY=0;exitDx=0;exitDy=0;" edge="1" parent="DPii9KiO_MGCDO2qKT5o-28" source="DPii9KiO_MGCDO2qKT5o-32" target="DPii9KiO_MGCDO2qKT5o-29">
          <mxGeometry width="50" height="50" relative="1" as="geometry">
            <mxPoint x="58" y="200" as="sourcePoint" />
            <mxPoint x="110" y="290" as="targetPoint" />
          </mxGeometry>
        </mxCell>
        <mxCell id="DPii9KiO_MGCDO2qKT5o-36" style="edgeStyle=orthogonalEdgeStyle;rounded=0;orthogonalLoop=1;jettySize=auto;html=1;entryX=1;entryY=0.5;entryDx=0;entryDy=0;strokeWidth=1;fontSize=11;startArrow=classic;startFill=1;" edge="1" parent="1" source="DPii9KiO_MGCDO2qKT5o-37" target="DPii9KiO_MGCDO2qKT5o-30">
          <mxGeometry relative="1" as="geometry" />
        </mxCell>
        <mxCell id="DPii9KiO_MGCDO2qKT5o-37" value="" style="shape=actor;whiteSpace=wrap;html=1;" vertex="1" parent="1">
          <mxGeometry x="425" y="790" width="40" height="60" as="geometry" />
        </mxCell>
        <mxCell id="DPii9KiO_MGCDO2qKT5o-38" style="edgeStyle=orthogonalEdgeStyle;rounded=0;orthogonalLoop=1;jettySize=auto;html=1;exitX=0;exitY=0.5;exitDx=0;exitDy=0;exitPerimeter=0;entryX=1;entryY=0.5;entryDx=0;entryDy=0;fontSize=11;" edge="1" parent="1" source="DPii9KiO_MGCDO2qKT5o-40" target="DPii9KiO_MGCDO2qKT5o-26">
          <mxGeometry relative="1" as="geometry">
            <mxPoint x="-310" y="840" as="sourcePoint" />
          </mxGeometry>
        </mxCell>
        <mxCell id="DPii9KiO_MGCDO2qKT5o-39" style="edgeStyle=orthogonalEdgeStyle;rounded=0;orthogonalLoop=1;jettySize=auto;html=1;fontSize=11;exitX=1;exitY=0.5;exitDx=0;exitDy=0;exitPerimeter=0;entryX=0;entryY=0.5;entryDx=0;entryDy=0;" edge="1" parent="1" source="DPii9KiO_MGCDO2qKT5o-40" target="DPii9KiO_MGCDO2qKT5o-29">
          <mxGeometry relative="1" as="geometry">
            <mxPoint x="-110" y="870" as="targetPoint" />
            <mxPoint x="-170" y="840" as="sourcePoint" />
            <Array as="points">
              <mxPoint x="-80" y="725" />
              <mxPoint x="-80" y="785" />
              <mxPoint x="-10" y="785" />
              <mxPoint x="-10" y="915" />
            </Array>
          </mxGeometry>
        </mxCell>
        <mxCell id="DPii9KiO_MGCDO2qKT5o-40" value="Query/Stream" style="strokeWidth=2;html=1;shape=mxgraph.flowchart.direct_data;whiteSpace=wrap;sketch=0;fontSize=17;labelBackgroundColor=none;fillColor=#e1d5e7;strokeColor=#9673a6;" vertex="1" parent="1">
          <mxGeometry x="-260" y="695" width="170" height="60" as="geometry" />
        </mxCell>
        <mxCell id="DPii9KiO_MGCDO2qKT5o-41" value="Query/Stream" style="strokeWidth=2;html=1;shape=mxgraph.flowchart.direct_data;whiteSpace=wrap;sketch=0;fontSize=17;fillColor=#e1d5e7;strokeColor=#9673a6;" vertex="1" parent="1">
          <mxGeometry x="-270" y="890" width="180" height="60" as="geometry" />
        </mxCell>
        <mxCell id="DPii9KiO_MGCDO2qKT5o-42" value="WorkerNode" style="swimlane;whiteSpace=wrap;html=1;fillColor=#dae8fc;strokeColor=#6c8ebf;fontSize=18;" vertex="1" parent="1">
          <mxGeometry x="-460" y="1007.5" width="150" height="140" as="geometry" />
        </mxCell>
        <UserObject label="RSP" treeRoot="1" id="DPii9KiO_MGCDO2qKT5o-43">
          <mxCell style="whiteSpace=wrap;html=1;align=center;treeFolding=1;treeMoving=1;newEdgeStyle={&quot;edgeStyle&quot;:&quot;elbowEdgeStyle&quot;,&quot;startArrow&quot;:&quot;none&quot;,&quot;endArrow&quot;:&quot;none&quot;};fillColor=#f5f5f5;fontColor=#333333;strokeColor=#666666;fontSize=30;" vertex="1" parent="DPii9KiO_MGCDO2qKT5o-42">
            <mxGeometry x="15" y="50" width="120" height="60" as="geometry" />
          </mxCell>
        </UserObject>
        <mxCell id="DPii9KiO_MGCDO2qKT5o-44" style="edgeStyle=orthogonalEdgeStyle;rounded=0;orthogonalLoop=1;jettySize=auto;html=1;exitX=0;exitY=0.5;exitDx=0;exitDy=0;exitPerimeter=0;entryX=1;entryY=0.5;entryDx=0;entryDy=0;fontSize=11;" edge="1" parent="1" source="DPii9KiO_MGCDO2qKT5o-41" target="DPii9KiO_MGCDO2qKT5o-42">
          <mxGeometry relative="1" as="geometry">
            <mxPoint x="-290" y="850" as="sourcePoint" />
            <mxPoint x="-360" y="920" as="targetPoint" />
          </mxGeometry>
        </mxCell>
        <mxCell id="DPii9KiO_MGCDO2qKT5o-45" style="edgeStyle=orthogonalEdgeStyle;rounded=0;orthogonalLoop=1;jettySize=auto;html=1;fontSize=11;exitX=1;exitY=0.5;exitDx=0;exitDy=0;exitPerimeter=0;entryX=0;entryY=0.5;entryDx=0;entryDy=0;" edge="1" parent="1" source="DPii9KiO_MGCDO2qKT5o-41" target="DPii9KiO_MGCDO2qKT5o-29">
          <mxGeometry relative="1" as="geometry">
            <mxPoint x="-100" y="880" as="targetPoint" />
            <mxPoint x="-190" y="850" as="sourcePoint" />
            <Array as="points">
              <mxPoint x="-80" y="920" />
              <mxPoint x="-80" y="785" />
              <mxPoint x="-10" y="785" />
              <mxPoint x="-10" y="915" />
            </Array>
          </mxGeometry>
        </mxCell>
        <mxCell id="DPii9KiO_MGCDO2qKT5o-46" value="CityOnto" style="ellipse;shape=cloud;whiteSpace=wrap;html=1;fillColor=#f8cecc;strokeColor=#b85450;fontSize=21;" vertex="1" parent="1">
          <mxGeometry x="-10" y="650" width="132" height="95" as="geometry" />
        </mxCell>
        <mxCell id="DPii9KiO_MGCDO2qKT5o-47" style="edgeStyle=orthogonalEdgeStyle;rounded=0;orthogonalLoop=1;jettySize=auto;html=1;exitX=0.55;exitY=0.95;exitDx=0;exitDy=0;exitPerimeter=0;entryX=0.409;entryY=-0.001;entryDx=0;entryDy=0;fontSize=11;entryPerimeter=0;" edge="1" parent="1" source="DPii9KiO_MGCDO2qKT5o-46" target="DPii9KiO_MGCDO2qKT5o-29">
          <mxGeometry relative="1" as="geometry">
            <mxPoint x="130" y="755" as="sourcePoint" />
            <mxPoint x="60" y="785" as="targetPoint" />
          </mxGeometry>
        </mxCell>
        <mxCell id="DPii9KiO_MGCDO2qKT5o-48" style="edgeStyle=orthogonalEdgeStyle;rounded=0;orthogonalLoop=1;jettySize=auto;html=1;entryX=0.5;entryY=0;entryDx=0;entryDy=0;strokeWidth=4;fontSize=11;startArrow=classic;startFill=1;exitX=0;exitY=0.5;exitDx=0;exitDy=0;endArrow=none;endFill=0;" edge="1" parent="1" source="DPii9KiO_MGCDO2qKT5o-26" target="DPii9KiO_MGCDO2qKT5o-5">
          <mxGeometry relative="1" as="geometry">
            <mxPoint x="-460" y="825" as="sourcePoint" />
            <mxPoint x="340" y="200" as="targetPoint" />
            <Array as="points">
              <mxPoint x="-600" y="755" />
              <mxPoint x="-600" y="640" />
              <mxPoint x="290" y="640" />
              <mxPoint x="290" y="190" />
              <mxPoint x="18" y="190" />
            </Array>
          </mxGeometry>
        </mxCell>
        <mxCell id="DPii9KiO_MGCDO2qKT5o-49" style="edgeStyle=orthogonalEdgeStyle;rounded=0;orthogonalLoop=1;jettySize=auto;html=1;entryX=0.5;entryY=0;entryDx=0;entryDy=0;strokeWidth=4;fontSize=11;startArrow=classic;startFill=1;exitX=0;exitY=0.5;exitDx=0;exitDy=0;endArrow=none;endFill=0;" edge="1" parent="1" source="DPii9KiO_MGCDO2qKT5o-42" target="DPii9KiO_MGCDO2qKT5o-5">
          <mxGeometry relative="1" as="geometry">
            <mxPoint x="-388" y="855" as="sourcePoint" />
            <mxPoint x="28" y="280" as="targetPoint" />
            <Array as="points">
              <mxPoint x="-600" y="1078" />
              <mxPoint x="-600" y="640" />
              <mxPoint x="290" y="640" />
              <mxPoint x="290" y="190" />
              <mxPoint x="18" y="190" />
            </Array>
          </mxGeometry>
        </mxCell>
        <UserObject label="" treeRoot="1" id="DPii9KiO_MGCDO2qKT5o-50">
          <mxCell style="whiteSpace=wrap;html=1;align=center;treeFolding=1;treeMoving=1;newEdgeStyle={&quot;edgeStyle&quot;:&quot;elbowEdgeStyle&quot;,&quot;startArrow&quot;:&quot;none&quot;,&quot;endArrow&quot;:&quot;none&quot;};fillColor=#f5f5f5;fontColor=#333333;strokeColor=#666666;" vertex="1" parent="1">
            <mxGeometry x="-480" y="1220" width="800" height="210" as="geometry" />
          </mxCell>
        </UserObject>
        <mxCell id="DPii9KiO_MGCDO2qKT5o-51" value="DataBase" style="shape=datastore;whiteSpace=wrap;html=1;fillColor=#d5e8d4;strokeColor=#82b366;fontSize=20;" vertex="1" parent="1">
          <mxGeometry x="-445" y="1290" width="120" height="110" as="geometry" />
        </mxCell>
        <mxCell id="DPii9KiO_MGCDO2qKT5o-52" value="&lt;b style=&quot;font-size: 19px;&quot;&gt;&lt;font style=&quot;font-size: 19px;&quot;&gt;Big data Processing&lt;/font&gt;&lt;/b&gt;" style="ellipse;whiteSpace=wrap;html=1;fillColor=#dae8fc;strokeColor=#6c8ebf;fontSize=19;" vertex="1" parent="1">
          <mxGeometry x="-160" y="1280" width="190" height="120" as="geometry" />
        </mxCell>
        <mxCell id="DPii9KiO_MGCDO2qKT5o-53" value="&lt;b style=&quot;font-size: 18px;&quot;&gt;Cloud Node&lt;/b&gt;" style="rounded=0;whiteSpace=wrap;html=1;fillColor=#fff2cc;strokeColor=#d6b656;fontSize=18;" vertex="1" parent="1">
          <mxGeometry x="-480" y="1220" width="800" height="40" as="geometry" />
        </mxCell>
        <mxCell id="DPii9KiO_MGCDO2qKT5o-54" style="edgeStyle=orthogonalEdgeStyle;rounded=0;orthogonalLoop=1;jettySize=auto;html=1;fontSize=11;exitX=1;exitY=0.5;exitDx=0;exitDy=0;entryX=0;entryY=0.5;entryDx=0;entryDy=0;" edge="1" parent="1" source="DPii9KiO_MGCDO2qKT5o-51" target="DPii9KiO_MGCDO2qKT5o-52">
          <mxGeometry relative="1" as="geometry">
            <mxPoint x="-250" y="1320" as="targetPoint" />
            <mxPoint x="-340" y="1470" as="sourcePoint" />
          </mxGeometry>
        </mxCell>
        <mxCell id="DPii9KiO_MGCDO2qKT5o-55" style="edgeStyle=orthogonalEdgeStyle;rounded=0;orthogonalLoop=1;jettySize=auto;html=1;entryX=0.5;entryY=0;entryDx=0;entryDy=0;strokeWidth=4;fontSize=11;startArrow=classic;startFill=1;exitX=0;exitY=0.7;exitDx=0;exitDy=0;endArrow=none;endFill=0;" edge="1" parent="1" source="DPii9KiO_MGCDO2qKT5o-51" target="DPii9KiO_MGCDO2qKT5o-29">
          <mxGeometry relative="1" as="geometry">
            <mxPoint x="-370" y="1650" as="sourcePoint" />
            <mxPoint x="108" y="842" as="targetPoint" />
            <Array as="points">
              <mxPoint x="-600" y="1367" />
              <mxPoint x="-600" y="1160" />
              <mxPoint x="380" y="1160" />
              <mxPoint x="380" y="762" />
              <mxPoint x="92" y="762" />
            </Array>
          </mxGeometry>
        </mxCell>
        <mxCell id="DPii9KiO_MGCDO2qKT5o-56" value="ConceptOnto" style="ellipse;shape=cloud;whiteSpace=wrap;html=1;fillColor=#f8cecc;strokeColor=#b85450;fontSize=21;" vertex="1" parent="1">
          <mxGeometry x="110" y="650" width="160" height="95" as="geometry" />
        </mxCell>
        <mxCell id="DPii9KiO_MGCDO2qKT5o-57" style="edgeStyle=orthogonalEdgeStyle;rounded=0;orthogonalLoop=1;jettySize=auto;html=1;exitX=0.55;exitY=0.95;exitDx=0;exitDy=0;exitPerimeter=0;fontSize=11;" edge="1" parent="1" source="DPii9KiO_MGCDO2qKT5o-56">
          <mxGeometry relative="1" as="geometry">
            <mxPoint x="140" y="770" as="sourcePoint" />
            <mxPoint x="80" y="860" as="targetPoint" />
            <Array as="points">
              <mxPoint x="202" y="740" />
              <mxPoint x="202" y="750" />
              <mxPoint x="81" y="750" />
              <mxPoint x="81" y="860" />
            </Array>
          </mxGeometry>
        </mxCell>
        <mxCell id="DPii9KiO_MGCDO2qKT5o-58" value="CityOnto" style="ellipse;shape=cloud;whiteSpace=wrap;html=1;fillColor=#f8cecc;strokeColor=#b85450;fontSize=21;" vertex="1" parent="1">
          <mxGeometry x="-120" y="115" width="132" height="95" as="geometry" />
        </mxCell>
        <mxCell id="DPii9KiO_MGCDO2qKT5o-59" style="edgeStyle=orthogonalEdgeStyle;rounded=0;orthogonalLoop=1;jettySize=auto;html=1;exitX=0.55;exitY=0.95;exitDx=0;exitDy=0;exitPerimeter=0;entryX=0.388;entryY=0.063;entryDx=0;entryDy=0;entryPerimeter=0;" edge="1" parent="1" source="DPii9KiO_MGCDO2qKT5o-58" target="DPii9KiO_MGCDO2qKT5o-5">
          <mxGeometry relative="1" as="geometry" />
        </mxCell>
      </root>
    </mxGraphModel>
  </diagram>
</mxfile>
